<svg width="211" height="33" viewBox="0 0 211 33" fill="none" xmlns="http://www.w3.org/2000/svg">
<path d="M159.71 0H131.556C130.184 0 128.877 1.0965 128.633 2.44909L123.673 30.2109C123.429 31.5622 124.346 32.6587 125.718 32.6587H153.871C155.243 32.6587 156.552 31.5622 156.793 30.2109L161.757 2.44909C161.996 1.0965 161.081 0 159.71 0Z" fill="#4CCEAC"/>
<path d="M142.478 5.92896L138.161 30.0718H132.052L134.367 17.1289C134.7 15.2591 134.856 14.1365 134.833 13.7574C134.823 13.5734 134.761 13.3968 134.655 13.2452C134.549 13.0935 134.402 12.9741 134.23 12.9008C133.856 12.7069 132.963 12.6099 131.551 12.6099H130.948L131.453 9.79654C134.517 9.16872 136.991 7.88077 138.874 5.92896H142.478Z" fill="white"/>
<path d="M150.857 2.66577C152.039 4.6151 154.051 5.90305 156.89 6.52962L156.388 9.34546H155.784C154.373 9.34546 153.445 9.44243 153.003 9.63512C152.802 9.71344 152.62 9.82906 152.466 9.97576C152.311 10.1237 152.187 10.299 152.103 10.4942C151.942 10.8709 151.696 11.9947 151.362 13.8657L149.047 26.8074H142.941L147.264 2.66577H150.857Z" fill="white"/>
<path d="M6.75552 9.92816H0V6.00464H18.3993V9.92816H11.6425V26.8232H6.75552V9.92816Z" fill="#696FFB"/>
<path d="M22.4136 16.4128C22.4136 10.2267 27.3006 5.64551 33.9641 5.64551C40.6289 5.64551 45.5171 10.2068 45.5171 16.4128C45.5171 22.6201 40.6003 27.1801 33.9641 27.1801C27.3279 27.1801 22.4136 22.6064 22.4136 16.4128ZM40.5704 16.4128C40.5704 12.457 37.7347 9.75054 33.9641 9.75054C30.1935 9.75054 27.3578 12.457 27.3578 16.4128C27.3578 20.3687 30.1935 23.0763 33.9641 23.0763C37.7347 23.0763 40.5704 20.3687 40.5704 16.4128Z" fill="#696FFB"/>
<path d="M70.5241 13.5569C70.5241 18.1978 66.9947 21.0832 61.3543 21.0832H57.1014V26.833H52.2144V6.01198H61.3543C66.9947 6.00452 70.5241 8.88749 70.5241 13.5569ZM65.5775 13.5569C65.5775 11.267 64.0695 9.92804 61.0833 9.92804H57.1014V17.156H61.0833C64.0695 17.156 65.5775 15.8183 65.5775 13.5569Z" fill="#696FFB"/>
<path d="M75.6519 24.7708L77.3103 21.1419C79.0905 22.4212 81.7448 23.3138 84.2784 23.3138C87.175 23.3138 88.3511 22.3615 88.3511 21.0835C88.3511 17.1861 76.0745 19.8639 76.0745 12.13C76.0745 8.59064 78.9699 5.64551 84.9733 5.64551C87.6276 5.64551 90.3427 6.27084 92.3032 7.48917L90.7952 11.1479C88.8334 10.0477 86.8133 9.51806 84.9422 9.51806C82.0468 9.51806 80.9205 10.5897 80.9205 11.8975C80.9205 15.7353 93.1983 13.0873 93.1983 20.7317C93.1983 24.2114 90.2718 27.1863 84.2386 27.1863C80.9006 27.1801 77.5216 26.1993 75.6519 24.7708Z" fill="#343A40"/>
<path d="M115.922 22.9569V26.8232H99.5723V6.0022H115.53V9.86978H104.429V14.39H114.232V18.1383H104.429V22.9569H115.922Z" fill="#343A40"/>
<path d="M185.39 22.9569V26.8232H169.041V6.0022H184.997V9.86978H173.897V14.39H183.701V18.1383H173.897V22.9569H185.39Z" fill="#343A40"/>
<path d="M205.751 26.8231L201.679 21.0198H197.184V26.8193H192.297V5.99829H201.437C207.078 5.99829 210.607 8.88126 210.607 13.5519C210.607 16.6749 208.998 18.9648 206.263 20.1247L211 26.8168L205.751 26.8231ZM201.158 9.92803H197.176V17.1858H201.158C204.144 17.1858 205.653 15.8183 205.653 13.5569C205.66 11.267 204.152 9.92803 201.158 9.92803Z" fill="#343A40"/>
</svg>
